<svg width="20" height="21" viewBox="0 0 20 21" fill="none" xmlns="http://www.w3.org/2000/svg">
<path d="M5.86536 5.26961C5.86536 5.26961 5.61078 5.13586 5.44536 4.37794C5.27994 3.62003 6.7312 2.21961 6.7312 2.21961C6.7312 2.21961 7.17703 2.00336 9.02286 2.03544C10.8687 2.06753 11.3087 2.36628 11.6908 2.82461C13.3562 4.82378 16.4845 8.80294 17.227 11.9404C17.3962 12.4079 17.6295 12.1529 17.6295 12.9075C17.6295 13.4484 17.3337 13.5975 17.2545 13.6859C15.332 15.8375 10.6212 16.5504 8.51994 16.5504C6.41869 16.5504 6.43203 16.0667 5.84619 16.0667C5.26036 16.0667 4.61119 18.0021 3.16286 18.2821C2.08369 16.1175 2.12828 11.7375 3.16286 9.42378C5.59786 9.42378 5.98619 10.3592 6.99203 10.3592C7.85161 10.3592 7.71786 9.82461 9.07411 9.82461C10.4304 9.82461 12.3016 11.3713 12.3016 11.3713C11.2416 10.0538 12.4233 6.84294 10.1341 4.70586C9.70411 4.30503 9.50369 5.62253 8.16661 5.62253C7.96953 5.73919 7.26036 5.83211 7.26036 5.83211" stroke="#5C5E64" stroke-width="0.5" stroke-linecap="round" stroke-linejoin="round"/>
<path d="M12.8688 11.9171C13.2413 12.3421 14.0067 12.9184 14.7183 12.9088M5.19751 12.4634C4.37626 13.45 4.26793 14.5196 3.44043 14.9654M6.46418 12.9092C7.6996 14.1634 9.93418 14.08 11.2392 12.7434M11.2946 3.79878C11.2375 4.03753 10.9321 4.40503 10.7071 4.46711M7.8046 2.84378C7.63751 3.0442 6.82543 4.07586 6.8446 4.24295C6.86376 4.41003 6.7446 5.24545 6.99751 5.33628C7.25043 5.42711 8.11001 5.27378 8.10043 4.91128C8.09085 4.54878 8.01918 4.36211 8.03835 4.18545C8.05751 4.00878 8.63043 3.13545 8.63043 3.13545" stroke="#5C5E64" stroke-width="0.5" stroke-linecap="round" stroke-linejoin="round"/>
<path d="M6.97798 2.69086C6.76798 2.94419 6.07548 3.92294 6.08506 4.33336C6.09464 4.74377 6.13756 5.04502 6.23298 5.13586C6.32839 5.22669 6.84464 5.01294 6.84464 5.01294" stroke="#5C5E64" stroke-width="0.5" stroke-linecap="round" stroke-linejoin="round"/>
<path d="M7.02965 5.34545C7.02965 5.34545 7.23632 5.57045 7.26007 5.81378C7.28382 6.05711 6.94507 6.29128 6.63507 6.37711C6.32507 6.46295 5.88965 5.88045 5.88965 5.66086C5.88965 5.44128 6.2334 5.13586 6.2334 5.13586M8.99131 4.18628C9.00215 4.49503 9.07757 4.82961 8.81132 4.9267C8.54507 5.02378 8.08423 5.00003 8.08423 5.00003" stroke="#5C5E64" stroke-width="0.5" stroke-linecap="round" stroke-linejoin="round"/>
</svg>
